<svg width="133" height="29" viewBox="0 0 133 29" fill="none" xmlns="http://www.w3.org/2000/svg">
<path d="M0.334262 28V1.14287H6.01255V23.3184H17.5265V28H0.334262ZM50.4606 14.5714C50.4606 17.5002 49.9054 19.9918 48.7951 22.0463C47.6936 24.1008 46.1898 25.6701 44.284 26.7542C42.3868 27.8295 40.2536 28.3672 37.8844 28.3672C35.4977 28.3672 33.3558 27.8251 31.4586 26.7411C29.5615 25.657 28.0621 24.0877 26.9606 22.0332C25.859 19.9787 25.3082 17.4914 25.3082 14.5714C25.3082 11.6427 25.859 9.15105 26.9606 7.09655C28.0621 5.04205 29.5615 3.47714 31.4586 2.4018C33.3558 1.31773 35.4977 0.775687 37.8844 0.775687C40.2536 0.775687 42.3868 1.31773 44.284 2.4018C46.1898 3.47714 47.6936 5.04205 48.7951 7.09655C49.9054 9.15105 50.4606 11.6427 50.4606 14.5714ZM44.7036 14.5714C44.7036 12.6743 44.4195 11.0744 43.8512 9.77177C43.2917 8.46914 42.5005 7.48123 41.4776 6.80805C40.4547 6.13487 39.257 5.79829 37.8844 5.79829C36.5118 5.79829 35.3141 6.13487 34.2912 6.80805C33.2683 7.48123 32.4728 8.46914 31.9045 9.77177C31.345 11.0744 31.0652 12.6743 31.0652 14.5714C31.0652 16.4686 31.345 18.0685 31.9045 19.3711C32.4728 20.6737 33.2683 21.6616 34.2912 22.3348C35.3141 23.008 36.5118 23.3446 37.8844 23.3446C39.257 23.3446 40.4547 23.008 41.4776 22.3348C42.5005 21.6616 43.2917 20.6737 43.8512 19.3711C44.4195 18.0685 44.7036 16.4686 44.7036 14.5714ZM78.0147 9.82423C77.8311 9.18602 77.5732 8.62213 77.241 8.13255C76.9088 7.63422 76.5022 7.21458 76.0214 6.87362C75.5493 6.52392 75.0073 6.25727 74.3953 6.07368C73.792 5.89008 73.1232 5.79829 72.3889 5.79829C71.0163 5.79829 69.8098 6.13924 68.7694 6.82116C67.7378 7.50308 66.9335 8.49536 66.3565 9.798C65.7795 11.0919 65.491 12.6743 65.491 14.5452C65.491 16.4161 65.7751 18.0073 66.3434 19.3186C66.9117 20.63 67.716 21.631 68.7563 22.3217C69.7967 23.0036 71.025 23.3446 72.4413 23.3446C73.7265 23.3446 74.8237 23.1173 75.7329 22.6627C76.6509 22.1993 77.3503 21.548 77.8311 20.7087C78.3207 19.8694 78.5655 18.8771 78.5655 17.7319L79.7195 17.9024H72.7954V13.6272H84.0339V17.0106C84.0339 19.3711 83.5356 21.3994 82.539 23.0954C81.5423 24.7827 80.1697 26.0854 78.4212 27.0033C76.6727 27.9126 74.6707 28.3672 72.4151 28.3672C69.8972 28.3672 67.6854 27.812 65.7795 26.7017C63.8736 25.5827 62.3874 23.9959 61.3208 21.9414C60.2629 19.8782 59.734 17.4303 59.734 14.5977C59.734 12.4208 60.0487 10.4799 60.6782 8.77512C61.3164 7.06158 62.2082 5.61032 63.3534 4.42133C64.4987 3.23234 65.8319 2.32749 67.3531 1.70677C68.8744 1.08605 70.5223 0.775687 72.2971 0.775687C73.8183 0.775687 75.2346 0.998622 76.5459 1.44449C77.8573 1.88162 79.0201 2.50234 80.0342 3.30666C81.0571 4.11097 81.892 5.06828 82.539 6.17858C83.1859 7.28015 83.6012 8.49536 83.7848 9.82423H78.0147ZM118.519 14.5714C118.519 17.5002 117.964 19.9918 116.853 22.0463C115.752 24.1008 114.248 25.6701 112.342 26.7542C110.445 27.8295 108.312 28.3672 105.943 28.3672C103.556 28.3672 101.414 27.8251 99.5168 26.7411C97.6197 25.657 96.1203 24.0877 95.0187 22.0332C93.9172 19.9787 93.3664 17.4914 93.3664 14.5714C93.3664 11.6427 93.9172 9.15105 95.0187 7.09655C96.1203 5.04205 97.6197 3.47714 99.5168 2.4018C101.414 1.31773 103.556 0.775687 105.943 0.775687C108.312 0.775687 110.445 1.31773 112.342 2.4018C114.248 3.47714 115.752 5.04205 116.853 7.09655C117.964 9.15105 118.519 11.6427 118.519 14.5714ZM112.762 14.5714C112.762 12.6743 112.478 11.0744 111.909 9.77177C111.35 8.46914 110.559 7.48123 109.536 6.80805C108.513 6.13487 107.315 5.79829 105.943 5.79829C104.57 5.79829 103.372 6.13487 102.349 6.80805C101.326 7.48123 100.531 8.46914 99.9627 9.77177C99.4031 11.0744 99.1234 12.6743 99.1234 14.5714C99.1234 16.4686 99.4031 18.0685 99.9627 19.3711C100.531 20.6737 101.326 21.6616 102.349 22.3348C103.372 23.008 104.57 23.3446 105.943 23.3446C107.315 23.3446 108.513 23.008 109.536 22.3348C110.559 21.6616 111.35 20.6737 111.909 19.3711C112.478 18.0685 112.762 16.4686 112.762 14.5714ZM129.73 28.341C128.864 28.341 128.121 28.035 127.5 27.423C126.888 26.8023 126.582 26.0592 126.582 25.1936C126.582 24.3369 126.888 23.6025 127.5 22.9905C128.121 22.3785 128.864 22.0725 129.73 22.0725C130.569 22.0725 131.303 22.3785 131.933 22.9905C132.562 23.6025 132.877 24.3369 132.877 25.1936C132.877 25.7706 132.728 26.2996 132.431 26.7804C132.143 27.2525 131.762 27.6328 131.29 27.9213C130.818 28.2011 130.298 28.341 129.73 28.341Z" fill="black"/>
</svg>
